# xmcd
#
# Track frame offsets: 
#        150
#        19962
#        37878
#
# Disc length: 749 seconds
#
# Revision: 2
# Processed by: cddbd v1.5.2PL0 Copyright (c) Steve Scherf et al.
# Submitted via: ExactAudioCopy v1.3
#
DISCID=1a02eb03
DTITLE=The Armada - Line in the Sand
DYEAR=2009
DGENRE=Rock
TTITLE0=Line In The Sand
TTITLE1=Baby's Come Undone
TTITLE2=Morocco (Atlas Mountain Mix)
EXTD=YEAR: 1998
EXTT0=
EXTT1=
EXTT2=
PLAYORDER=
